<svg xmlns="http://www.w3.org/2000/svg" viewBox="0 0 450.79 140.87"><defs><style>.cls-1{fill:none;}.cls-2{fill:#157cff;}.cls-3{fill:#15aeff;}.cls-4{fill:#fff;}</style></defs><g id="레이어_2" data-name="레이어 2"><g id="레이어_1-2" data-name="레이어 1"><rect class="cls-1" width="450.79" height="140.87"/><path class="cls-2" d="M53.85,76.06c.53,0,1.07,0,1.6-.09,1.44-.1,2.52-.15,3.25-.15a1.78,1.78,0,0,0,1-.31,1.36,1.36,0,0,0,.42-1.16V70.44l-6.36.48c0,1.64,0,3.17,0,4.59C53.84,75.7,53.84,75.87,53.85,76.06Z"/><path class="cls-2" d="M275.22,96.28a7.58,7.58,0,0,0-3.05-.6h-.46a7.14,7.14,0,0,0-5.09,2.12,6.32,6.32,0,0,0-1.74,4.84,7.66,7.66,0,0,0,.77,3,7,7,0,0,0,2.88.56H269a6.45,6.45,0,0,0,6.83-7.45A8.12,8.12,0,0,0,275.22,96.28Z"/><path class="cls-2" d="M355.78,82.68a3.53,3.53,0,0,1-.58-1.22,2.92,2.92,0,0,1-.5-.17A4.53,4.53,0,0,1,353,79.87a4,4,0,0,1-.73-2.51c-.05-1.34-.09-2.71-.12-4.13,0-.44,0-.89,0-1.33l-1.8.06-1.18,0L348,72c-.75,0-1.35,0-1.82,0q-.15,1.77-.27,3.51t-.27,3.36a6.58,6.58,0,0,1-1.66,4A4.68,4.68,0,0,1,341.5,84q4.19-.15,8-.26l7-.2h.12A5.06,5.06,0,0,1,355.78,82.68Z"/><path class="cls-2" d="M351.3,96l-1.77.07-5.9.23q-3.09.12-5.95.28l-4.62.23c.1,1.69.2,3.44.3,5.24.05.8.09,1.57.14,2.34l1.48,0,5.37-.08,5.36-.08c1.72,0,3.1-.06,4.13-.11a2.42,2.42,0,0,0,1.15-.31,1.22,1.22,0,0,0,.31-1v-.08c.05-1.19.07-2.71,0-4.59C351.33,97.34,351.32,96.64,351.3,96Z"/><path class="cls-2" d="M275.22,96.29a7.53,7.53,0,0,0-3.51-.6,7.14,7.14,0,0,0-5.09,2.12,6.32,6.32,0,0,0-1.74,4.84,7.66,7.66,0,0,0,.77,3,7.19,7.19,0,0,0,3.31.55,6.45,6.45,0,0,0,6.83-7.45A8,8,0,0,0,275.22,96.29Z"/><path class="cls-2" d="M351.3,96l-1.77.07-5.9.24q-3.09.11-5.95.27l-4.63.23c.11,1.69.21,3.44.31,5.24.05.8.09,1.57.14,2.34l1.48,0,5.37-.08,5.36-.08c1.72,0,3.1-.06,4.13-.11a2.51,2.51,0,0,0,1.16-.31,1.25,1.25,0,0,0,.3-1v-.08c.05-1.18.07-2.71,0-4.59C351.33,97.34,351.32,96.64,351.3,96Z"/><path class="cls-2" d="M60.16,74.35V70.44l-6.36.48c0,1.64,0,3.17,0,4.59,0,.19,0,.36,0,.55L55.46,76q2.15-.15,3.24-.15a1.78,1.78,0,0,0,1-.31A1.36,1.36,0,0,0,60.16,74.35Z"/><path class="cls-2" d="M437.34,70a10.41,10.41,0,0,0-2.73-2.69l-.08-.12a10.8,10.8,0,0,0-1.77-2V57.52a12.72,12.72,0,0,0-1.17-5.64A10.6,10.6,0,0,0,428,47.73,11.5,11.5,0,0,0,423.64,44l-.07,0-.06,0a16.87,16.87,0,0,0-7.08-1.58h-.32a16.78,16.78,0,0,0-6.91,1.42,11.5,11.5,0,0,0-6.7,8.81,11.87,11.87,0,0,0-3.44-4l-.19-.13a11.88,11.88,0,0,0-2.62-2.68c-2.29-1.7-5.27-2.53-9.11-2.53-.52,0-1.07,0-1.63,0-4.32.23-7.57,1.28-10,3.2-.25.2-.47.42-.7.64a9.77,9.77,0,0,0-.39-.94A10.44,10.44,0,0,0,371,42.27a10.94,10.94,0,0,0-5.31-4.1,20,20,0,0,0-6.89-1.26h-.38a19.25,19.25,0,0,0-6.81,1.17h0l0,0a11.9,11.9,0,0,0-2.75,1.49,10.36,10.36,0,0,0-3.19-2.21,12.9,12.9,0,0,0-5-1.09c-.93,0-2,0-3.19,0-2.4,0-4.78,0-7.08,0s-4.66.09-6.9.16-4.54.17-6.9.28l-7.23.3H309a11.53,11.53,0,0,0-9.19,5,14.91,14.91,0,0,0-2.26,8c0,.3,0,.58,0,.87a10.19,10.19,0,0,0-3.14-3.34,10.54,10.54,0,0,0-5.18-4,18.84,18.84,0,0,0-6.5-1.19h-.35a18.3,18.3,0,0,0-6.42,1.1h0l0,0a11,11,0,0,0-6.27,5.94h-.21l-2.34.12a11.25,11.25,0,0,0-3.44-3.84,11.53,11.53,0,0,0-3.48-3.25,15.29,15.29,0,0,0-8.2-2c-.66,0-1.37,0-2.09.08h-.07c-5.43.43-9,2.39-11.18,4.95a10.42,10.42,0,0,0-2.12-1.88,10.74,10.74,0,0,0-5.27-4.08,19.54,19.54,0,0,0-6.8-1.25h-.37a19.13,19.13,0,0,0-6.71,1.15h0l0,0c-.39.15-.77.32-1.13.5a11,11,0,0,0-7.25-2.55h-.36c-6.21.2-12.39.42-18.37.64s-11.85.5-17.27.8h-.18a11.28,11.28,0,0,0-9.13,5.66,15.45,15.45,0,0,0-1.78,8.2c0,.17,0,.33,0,.5a11.57,11.57,0,0,0-1.12-1.64,11.24,11.24,0,0,0-2.29-2.13l-.52-.69a10.88,10.88,0,0,0-8.46-4.08c-3.49,0-6.81-.08-10-.1l-3.18,0c-2.12,0-4.26,0-6.37,0l-9.42.18c-2.79.06-5.76.15-8.84.27a12.76,12.76,0,0,0-1.42-1.71,10.89,10.89,0,0,0-1.47-1.23,12.62,12.62,0,0,0-1.35-1.59c-2.46-2.46-5.93-3.66-10.6-3.66a15.29,15.29,0,0,0-8,1.89A15.38,15.38,0,0,0,81.1,37h-.59a18,18,0,0,0-6,1.06c-2.35-1.67-5.31-2.45-9.31-2.45-4.48,0-7.88,1.29-10.12,3.85a10.42,10.42,0,0,0-1.26-1.07,13.35,13.35,0,0,0-8.07-2.26l-1.22,0a20.38,20.38,0,0,0-4.94.75,12.16,12.16,0,0,0-5.13,3,11,11,0,0,0-3,5.47,17.43,17.43,0,0,0-.37,3.74v.14c.1,5.93.25,11.68.43,17.1s.4,10.65.66,15.3v0a13.6,13.6,0,0,0,4.6,9.53,11.25,11.25,0,0,0,.92.76,14.45,14.45,0,0,0,9.64,5.63c0,1.68.12,3.3.25,4.83.18,2.33.38,4.47.6,6.36a13.66,13.66,0,0,0,5.43,9.85A13.26,13.26,0,0,0,64.7,124h.47c2.7,0,5.83-.13,9.31-.23L85,123.4c3.51-.13,6.83-.28,9.87-.43s5.79-.36,7.8-.58h.13a10.65,10.65,0,0,0,7.73-5,11.31,11.31,0,0,0,1-2.12c.38,0,.77.06,1.18.06h.15c7.21-.14,14.27-.42,21-.82s13.59-1,20.43-1.66a13.07,13.07,0,0,0,6.91-2.77c1.92-1.53,4.21-4.46,4.21-9.79V100a12.53,12.53,0,0,0-2.79-7.66,11.21,11.21,0,0,0-.89-.93,13.69,13.69,0,0,0,1.94-7.46A13.4,13.4,0,0,0,162,77a10,10,0,0,0-3.12-3.29,10,10,0,0,0-1.5-1.78,11.12,11.12,0,0,0,4-3.85,14.78,14.78,0,0,0,2.07-8c0-.11,0-.21,0-.32a10.64,10.64,0,0,0,3.41,3.8,11.35,11.35,0,0,0,.85,1.09,11.23,11.23,0,0,0,4.42,3c-1.85,2-3.61,3.88-5.22,5.59l-.09.1-.09.1a11.88,11.88,0,0,0-2.85,9.41v.13a13.57,13.57,0,0,0,4.89,8.72l.55.43a13.5,13.5,0,0,0,2.27,2.39,15.63,15.63,0,0,0,4.06,2.46,10.9,10.9,0,0,0,.34,1.15,11.52,11.52,0,0,0,4.31,5.83,11,11,0,0,0,8.46,4.77h.34c1.36,0,2.9.06,4.58.06l2.67,0c2.69,0,5.53-.07,8.41-.15l4.11-.11c0,1,.07,2,.12,2.82v.16l0,.17a11.39,11.39,0,0,0,4.52,8l.3.22a11.87,11.87,0,0,0,2.51,2.6,12.71,12.71,0,0,0,7.84,2.38c.54,0,1.1,0,1.67-.07,3.74-.3,6.6-1.42,8.73-3.4a13.08,13.08,0,0,0,3.9-8.1l0-.13V113c.31-3,.57-6.37.78-9.93.13-1.93.24-3.81.3-5.63l.34,0a13.29,13.29,0,0,0,1.64.11,10.46,10.46,0,0,0,1.49-.1,25,25,0,0,0-.16,2.74,22.81,22.81,0,0,0,1.73,8.82,20.56,20.56,0,0,0,5.41,7.57l.56.48a21.71,21.71,0,0,0,2.26,2.34,23.22,23.22,0,0,0,8.6,4.72,30.16,30.16,0,0,0,9,1.27c.59,0,1.21,0,1.82,0a32.75,32.75,0,0,0,10.82-2.18,24,24,0,0,0,8.31-5.43,21.16,21.16,0,0,0,5.06-8,24.67,24.67,0,0,0-.87-18c-.06-.13-.14-.25-.2-.38a12.11,12.11,0,0,0,.82-.93,12.49,12.49,0,0,0,2.4-6.52v-.13c.15-2,.26-4.09.33-6.33s.12-4.39.15-6.76,0-4.68,0-6.87,0-4.18-.06-6.3A11.07,11.07,0,0,0,301,60.21a13,13,0,0,0,1.75,1.52A10.17,10.17,0,0,0,303.78,63a11.71,11.71,0,0,0,7.82,3.77h.24c3.61.1,7.14.17,10.49.19.06,3.22.16,6.37.3,9.36v.06c0,.1,0,.21,0,.31l-1.26.06a11.15,11.15,0,0,0-10.88,11.61c0,1.31,0,2.94.12,5s.17,4.07.28,6,.19,3.85.26,5.6c.09,2,.19,3.49.32,4.57a13.52,13.52,0,0,0,4.12,8.81,11,11,0,0,0,1.14.9,11.4,11.4,0,0,0,1.67,1.92c2.34,2.11,5.52,3.19,9.46,3.19,2.15,0,4.74,0,7.93-.08s6.39-.12,9.55-.2,6.44-.18,9.52-.31,5.7-.28,7.74-.44h.16l.15,0a11.92,11.92,0,0,0,6.39-2.72,11.39,11.39,0,0,0,3.75-7.26l0-.17,0-.17c.1-1.09.21-2.62.31-4.62.25,0,.49.11.74.15a13.08,13.08,0,0,0,2.23.19A12,12,0,0,0,384,106l0,0,0,0a80.12,80.12,0,0,0,6.29-5.85c.32-.33.63-.67,1-1l1.06.73c1.29.89,2.58,1.73,3.83,2.49s2.51,1.49,3.63,2.08l.36.18.38.15a11.87,11.87,0,0,0,1.78.57,10.75,10.75,0,0,0,2.06,4,12.07,12.07,0,0,0,2.32,2.15c.16.23.33.45.5.66a11.68,11.68,0,0,0,4.86,3.52l.09,0,.1,0a16.15,16.15,0,0,0,4.65.87l.93,0a12.71,12.71,0,0,0,4.32-.69,13.53,13.53,0,0,0,5.09-3.24,11.81,11.81,0,0,0,3.39-7.33c.37-3.6.69-7.29.92-11,.1-1.46.19-2.93.28-4.42a11.94,11.94,0,0,0,4.6-3c2-2.19,3.08-5.23,3.08-9A13.51,13.51,0,0,0,437.34,70ZM107.26,69c0-2.28.06-4.54.1-6.79s.14-4.35.28-6.31a2.73,2.73,0,0,1,3-2.78c3.52-.14,6.87-.24,10-.31l9.36-.18c3.09,0,6.21-.06,9.37,0s6.48.05,10,.1a2.91,2.91,0,0,1,2.34,1.15,4,4,0,0,1,.75,1.7,2.88,2.88,0,0,1,2.06,1.12,5.2,5.2,0,0,1,.94,3.38,7.16,7.16,0,0,1-.83,3.76,3,3,0,0,1-2.37,1.46c-2.93.19-5.58.34-8,.45s-4.72.21-7,.28l-7,.21q-3.56.11-7.8.17c-.1,2.47-.19,4.74-.28,6.83-.07,1.63-.13,3.14-.18,4.55l6.56-.12c2.36-.05,4.71-.08,7-.11s4.68-.06,7.07-.1,4.91-.12,7.56-.21a2,2,0,0,1,2,1,4.79,4.79,0,0,1,.58,1.78h.25a2,2,0,0,1,2,1,5.55,5.55,0,0,1,.66,2.86q0,4-2.58,4.31-4,.49-8.49.84c-3,.23-6,.43-9.13.59s-6.23.29-9.37.39-6.18.13-9.15.13A7.53,7.53,0,0,1,112,88.72a4.65,4.65,0,0,1-1.33-2,5,5,0,0,1-1.49-.85c-1.14-1-1.75-2.55-1.85-4.73,0-1.63-.07-3.5-.07-5.61S107.23,71.25,107.26,69ZM53.76,89.67c-1.83.1-3.44.13-4.82.07a6.23,6.23,0,0,1-4-1.65,5.64,5.64,0,0,1-1.38-1.86,6.51,6.51,0,0,1-1.43-1,5.65,5.65,0,0,1-1.93-4q-.39-6.94-.66-15.13t-.42-17a9.67,9.67,0,0,1,.19-2,3,3,0,0,1,.81-1.5,4.14,4.14,0,0,1,1.77-1,12.71,12.71,0,0,1,3-.42c2-.1,3.42.14,4.25.73a3.47,3.47,0,0,1,1.25,2.22,3.94,3.94,0,0,1,1.56.6A4.1,4.1,0,0,1,53.33,51c.05,1,.09,2.31.12,3.86,0,.63,0,1.29,0,2l6.59-.55q0-1.77,0-3.66c0-1.26,0-2.71,0-4.36A5.68,5.68,0,0,1,60.93,45c.62-.87,2-1.31,4.25-1.31s3.77.32,4.67,1a3.2,3.2,0,0,1,1.27,2.17,4.49,4.49,0,0,1,1.54.65,3.4,3.4,0,0,1,1.35,3c0,2.62,0,5.42,0,8.37s0,6,0,9,0,6-.11,9-.2,5.75-.35,8.37a3.39,3.39,0,0,1-.85,2.24,4.11,4.11,0,0,1-2.39.77l-5.1.54q-2.85.32-5.82.58C57.49,89.42,55.58,89.57,53.76,89.67Zm50,23.38a2.76,2.76,0,0,1-2,1.39q-2.78.3-7.33.54c-3,.15-6.29.29-9.76.42s-7,.25-10.45.35-6.59.18-9.26.23c-2.84.08-4.67-1-5.53-3.21-1.9-.69-3-2.29-3.31-4.85q-.32-2.72-.58-6.1c-.18-2.26-.27-4.71-.27-7.33q0-3.7,2.55-4.4a19.08,19.08,0,0,1,4-.58,25.46,25.46,0,0,1,3.7,0,3.55,3.55,0,0,1,2.67,1,4,4,0,0,1,.63,1.84,3.19,3.19,0,0,1,2.18,1,5.35,5.35,0,0,1,.74,2.89q0,1.24,0,2.16c0,.62.06,1.21.08,1.78s0,1.16.08,1.77c0,.25,0,.53,0,.81l4.53,0q3.78,0,7.91-.11l7.91-.16q3.78-.08,6.17-.07c1.6,0,2.57,1,2.94,2.83,1.82,0,2.82,1.38,3,4A6.4,6.4,0,0,1,103.8,113.05Zm1.66-48.34q-.12,3.81-.23,7.79T105,80.06q-.12,3.59-.27,6.56c-.11,2-.21,3.54-.31,4.67-.31,2.93-2.22,4.32-5.71,4.17A6,6,0,0,1,95.2,94.3a3.34,3.34,0,0,1-1-2,4.68,4.68,0,0,1-1.79-.87c-.8-.67-1.2-1.85-1.2-3.55V84.81c0-1.26,0-2.67,0-4.21s0-3.2,0-5V73H89.6q-.07,4.25-.19,8.37T89.14,89a3.68,3.68,0,0,1-1.62,3.17,8.12,8.12,0,0,1-4,.85,7.07,7.07,0,0,1-3.74-.85,3.33,3.33,0,0,1-1.35-2.23A5,5,0,0,1,77,89.32c-.91-.57-1.41-1.7-1.51-3.4,0-.87-.1-2.19-.15-4s-.09-3.77-.12-6,0-4.56-.08-7.06S75,64,75,61.58s0-4.63,0-6.71V49.66a4.66,4.66,0,0,1,1.15-3.32c.78-.82,2.29-1.26,4.56-1.31s3.83.31,4.7,1.08a3.68,3.68,0,0,1,1.19,2,3.83,3.83,0,0,1,1.63.8A3.89,3.89,0,0,1,89.52,52v4.67c0,.94,0,1.94,0,3l1.55,0V53.9c0-1.9,0-3.44.08-4.63a4.41,4.41,0,0,1,1.16-3.2q1.16-1.2,4.47-1.2,3.63,0,4.94,1.32a4,4,0,0,1,1.09,1.88,4.12,4.12,0,0,1,1.73.93,4,4,0,0,1,1.24,3.09c-.06,1.49-.11,3.33-.16,5.52S105.54,62.16,105.46,64.71Zm52,35.57c0,1.72-.39,2.89-1.18,3.52a5,5,0,0,1-2.72,1.08q-10.17,1.05-20.13,1.64t-20.68.8a4.12,4.12,0,0,1-3.07-1.12,3.5,3.5,0,0,1-.93-1.83,3.78,3.78,0,0,1-1.89-1,4.64,4.64,0,0,1-1.11-3.49,5,5,0,0,1,1-3.55A3.85,3.85,0,0,1,109.66,95q5.64-.28,10.9-.52c3.51-.17,7-.32,10.34-.46s6.77-.24,10.14-.31,6.79-.13,10.27-.17a2.94,2.94,0,0,1,2.4,1,4,4,0,0,1,.81,1.81,2.87,2.87,0,0,1,2,1A4.56,4.56,0,0,1,157.47,100.28Zm131.44,6.86a13.11,13.11,0,0,1-3.2,5,16,16,0,0,1-5.61,3.63,25,25,0,0,1-8.18,1.6,23.39,23.39,0,0,1-8.05-.87,15.09,15.09,0,0,1-5.67-3.07,12.43,12.43,0,0,1-1.9-2.09c-.32-.24-.63-.47-.92-.72A12.68,12.68,0,0,1,252,106a14.7,14.7,0,0,1-1.12-5.75A15.33,15.33,0,0,1,252,94.68a14,14,0,0,1,3.17-4.88,16.89,16.89,0,0,1,5.43-3.58,22,22,0,0,1,6.17-1.55c-.43-.2-.87-.41-1.33-.65-1.14-.58-2.32-1.21-3.52-1.88s-2.4-1.37-3.59-2.09S256,78.65,255,78q-2.93,3.14-5.53,5.74a63.08,63.08,0,0,1-5.54,4.91,6.46,6.46,0,0,1-1.39.8,3.18,3.18,0,0,1-1.61.11,7.7,7.7,0,0,1-3.76-1.47,4.71,4.71,0,0,1-1.71-2.15,7.91,7.91,0,0,1-1.11-.66,5,5,0,0,1-1.58-1.88.57.57,0,0,1,0,.13,4.94,4.94,0,0,1-.86,2.6,5.07,5.07,0,0,1-2.22,1.54,6.71,6.71,0,0,1-1.19.25,3.9,3.9,0,0,1,.4,1.94h.26a2.47,2.47,0,0,1,2,.67,3.59,3.59,0,0,1,.53,2.19q0,4.59-.38,9.86t-.75,9.64a5.39,5.39,0,0,1-1.43,3.31,6.53,6.53,0,0,1-3.91,1.28,5.92,5.92,0,0,1-4-.72,3.38,3.38,0,0,1-1.35-2.21,3.72,3.72,0,0,1-1.47-.6,3.39,3.39,0,0,1-1.39-2.45c-.1-1.76-.17-3.89-.19-6.4,0-1.45,0-2.84-.06-4.18l-4,.11-8.21.22q-4.26.12-8.28.15t-7,0a3.16,3.16,0,0,1-2.93-2.41c0-.14-.09-.29-.13-.44a3.15,3.15,0,0,1-2.69-2.38,6.43,6.43,0,0,1-.26-2.63,7.66,7.66,0,0,1,.64-2.72A3.4,3.4,0,0,1,185,88.88a3.35,3.35,0,0,1,1.73-.56q2.49-.15,5.72-.3t6.89-.27q3.66-.1,7.42-.26t7.34-.23l6.74-.15,1.51,0a4.89,4.89,0,0,1-.77-.8A3.58,3.58,0,0,1,221,85a3.55,3.55,0,0,1-.55-.18,4.39,4.39,0,0,1-1.69-1.39A3.91,3.91,0,0,1,218,81q-.07-2.79-.11-6c0-1.24,0-2.53-.06-3.84l-2.2,0c-1.51,0-2.52,0-3-.07a3.85,3.85,0,0,1-3.05-1.36,5.2,5.2,0,0,1-.71-1.59,3.29,3.29,0,0,1-2.1-1.22,6.83,6.83,0,0,1-1-3.54c-.05-1.86.25-3.16.9-3.92a4.31,4.31,0,0,1,1-.84l-.89.08-6.59.57v7.87l4.34,2.3c2.51,1.33,4.91,2.72,7.22,4.18a2.35,2.35,0,0,1,1,1.71c.61.37,1.23.73,1.82,1.1a2.75,2.75,0,0,1,1.06,2.49,8.71,8.71,0,0,1-1.17,3.84,6.25,6.25,0,0,1-3,2.78,2.58,2.58,0,0,1-1.39.23,5.32,5.32,0,0,1-1.32-.3q-1.5-.52-3.27-1.32l-3.65-1.62c-1.26-.55-2.51-1.13-3.77-1.73s-2.43-1.2-3.54-1.81l-2.86,2.9c-.85.88-1.68,1.72-2.48,2.52s-1.63,1.59-2.48,2.34S185,88.27,183.89,89a6.63,6.63,0,0,1-1.5.86,3.4,3.4,0,0,1-1.73.12,7.25,7.25,0,0,1-4-1.7,5.75,5.75,0,0,1-1.54-2,7.41,7.41,0,0,1-1.27-.85,5.57,5.57,0,0,1-2.07-3.65,3.88,3.88,0,0,1,.9-3.16Q175.21,76,178,73t6.21-6.44c-.1-1.45-.18-3-.23-4.55l0-1.79q-4,.12-7.59.12a3.43,3.43,0,0,1-2.71-1.09,3.83,3.83,0,0,1-.8-1.78,3.2,3.2,0,0,1-2-1c-.65-.72-1-2-1.06-4a7.7,7.7,0,0,1,.76-4,3.25,3.25,0,0,1,2.78-1.61q8.13-.47,17.13-.79t18.33-.65c1.8,0,2.93.93,3.42,2.87,1.92.22,3,1.78,3.09,4.7.1,1.85-.19,3.17-.87,4a3.71,3.71,0,0,1-1,.78l4.3-.25V54c0-1.13,0-2.25.08-3.36a3.61,3.61,0,0,1,2.33-3.76,11.33,11.33,0,0,1,4.14-.64,11.6,11.6,0,0,1,4.07.72A2.78,2.78,0,0,1,230,48.27a4.25,4.25,0,0,1,.34,1.25c.29.08.58.18.85.28a2.75,2.75,0,0,1,1.62,1.28,5.29,5.29,0,0,1,.42,2.34q.07,3.54.07,7.56t0,8q0,4-.15,7.76c0,.89-.06,1.73-.09,2.56.05-.08.1-.16.16-.24.74-.88,1.58-1.85,2.51-2.89s1.89-2.13,2.89-3.24,2-2.25,3.1-3.41,2.13-2.3,3.2-3.42c-.14-2-.32-4.11-.56-6.33s-.39-4.25-.48-6.06q-.36-4.66,6.61-5.23c2.56-.18,4.4.07,5.54.77a3.28,3.28,0,0,1,1.62,2.32,4.71,4.71,0,0,1,1.2.5,3.36,3.36,0,0,1,1.71,3.06c0,2.51,0,4.82,0,6.93,0,1.74-.07,3.38-.13,5,1.25.79,2.54,1.64,3.89,2.55,2.42,1.62,4.69,3.18,6.83,4.66a2.57,2.57,0,0,1,.89,1.49l1.93,1.33a2.75,2.75,0,0,1,1,2.3,7.77,7.77,0,0,1-1.08,3.55,6.17,6.17,0,0,1-1.24,1.59,20,20,0,0,1,3.69.61A16,16,0,0,1,282,87.85a12,12,0,0,1,2.43,2.56l.39.26a12.27,12.27,0,0,1,3.59,4.49,16.72,16.72,0,0,1,.55,12Zm2.2-36.49c0,2.25-.07,4.44-.14,6.58s-.18,4.13-.32,6a4.58,4.58,0,0,1-.8,2.4,4.65,4.65,0,0,1-2.05,1.43,7.42,7.42,0,0,1-1.19.24,16.31,16.31,0,0,1-1.67.14,10,10,0,0,1-1.74-.07,4.93,4.93,0,0,1-1.32-.31,4.11,4.11,0,0,1-1.57-1.29,3.19,3.19,0,0,1-.56-1.33,3.36,3.36,0,0,1-.69-.2,4.1,4.1,0,0,1-1.57-1.29,3.63,3.63,0,0,1-.66-2.26q-.06-3.14-.14-6.55c0-1.35-.05-2.73-.08-4.13L276,70l-3.24.07c-1,0-1.87,0-2.61,0a12.27,12.27,0,0,1-1.54-.07,3.59,3.59,0,0,1-2.82-1.26,4.69,4.69,0,0,1-.69-1.66A3.12,3.12,0,0,1,262.94,66a6.2,6.2,0,0,1-.94-3.27,5.35,5.35,0,0,1,.83-3.62,4.44,4.44,0,0,1,2.58-1.39c.32-.05.87-.1,1.64-.14s1.67-.1,2.71-.14l3.31-.14,3.48-.14c0-.47,0-.92,0-1.36s0-.89,0-1.36a3.36,3.36,0,0,1,2.16-3.48,10.21,10.21,0,0,1,3.83-.59,10.66,10.66,0,0,1,3.76.66,2.55,2.55,0,0,1,1.5,1.18,4.09,4.09,0,0,1,.34,1.33,9.36,9.36,0,0,1,1,.31,2.61,2.61,0,0,1,1.5,1.18,5,5,0,0,1,.38,2.16q.07,3.27.07,6.69C291.14,66.13,291.13,68.4,291.11,70.65Zm75.24,11.88a5.25,5.25,0,0,1-2.27,1.58,6.79,6.79,0,0,1-1.21.25,2.88,2.88,0,0,1,.32,1.41c0,.16,0,.34,0,.51h.72a1.92,1.92,0,0,1,1.58.62,2.59,2.59,0,0,1,.5,1.7c.05,1.39.05,3.21,0,5.48s-.13,4.56-.23,6.9-.2,4.54-.31,6.6-.2,3.6-.3,4.63a3.63,3.63,0,0,1-1.05,2.31,3.78,3.78,0,0,1-2.12.85c-1.95.16-4.44.3-7.45.43s-6.13.23-9.37.31-6.4.14-9.49.19-5.69.08-7.8.08a6.08,6.08,0,0,1-4.09-1.12,4.49,4.49,0,0,1-1.14-2,3.93,3.93,0,0,1-1.67-.85,5.93,5.93,0,0,1-1.55-3.82c-.1-.87-.19-2.2-.26-4S319,101,318.89,99s-.19-4-.27-5.91-.11-3.48-.11-4.67a3.58,3.58,0,0,1,.89-2.66,3.54,3.54,0,0,1,2.43-1c.92,0,2.4-.12,4.43-.2l6.91-.27,4.68-.18a4.63,4.63,0,0,1-3.1-1.24,4.84,4.84,0,0,1-.93-1.78,3.67,3.67,0,0,1-1.88-1A6.64,6.64,0,0,1,330.62,76q-.22-4.86-.31-10.22c0-2.43,0-4.66,0-6.72-2.67,0-5.24,0-7.72,0-3.34,0-6.84-.09-10.49-.2a3.89,3.89,0,0,1-2.55-1.35,3.83,3.83,0,0,1-.85-1.56,4.31,4.31,0,0,1-2-1.26c-.82-.84-1.21-2.3-1.16-4.36a7.36,7.36,0,0,1,.93-3.81A3.78,3.78,0,0,1,309.56,45l7.25-.31,6.83-.27q3.36-.12,6.71-.16t7,0c1.13,0,2.11,0,2.93,0a5.51,5.51,0,0,1,2,.39,2.43,2.43,0,0,1,1.15,1,3.6,3.6,0,0,1,.37,1.45,4.41,4.41,0,0,1,1.29.33,2.41,2.41,0,0,1,1.16,1,4.16,4.16,0,0,1,.39,2v7.21c0,.18,0,.36,0,.54l1.47,0c1.47,0,2.74,0,3.82,0V53.94c0-1.47,0-3,.08-4.51a3.71,3.71,0,0,1,2.39-3.86,11.45,11.45,0,0,1,4.24-.66,12.09,12.09,0,0,1,4.17.73A2.86,2.86,0,0,1,364.46,47a4,4,0,0,1,.34,1.23c.28.08.56.17.82.27a2.92,2.92,0,0,1,1.66,1.31,5.55,5.55,0,0,1,.42,2.4q.15,7.24,0,14.35t-.5,13.35A5.14,5.14,0,0,1,366.35,82.53Zm64.29-1.09A4.39,4.39,0,0,1,428,82.73a11.47,11.47,0,0,1-1.67.21c-.65,0-1.35.07-2.09.07q-.28,5.43-.63,10.83t-.9,10.69a4,4,0,0,1-1.08,2.48,5.75,5.75,0,0,1-2.13,1.35,5.57,5.57,0,0,1-2.16.21,7.86,7.86,0,0,1-2.37-.42,3.76,3.76,0,0,1-1.56-1.14,3,3,0,0,1-.62-1.51,5.8,5.8,0,0,1-.63-.16,3.84,3.84,0,0,1-1.57-1.15A3.38,3.38,0,0,1,410,102c0-2.95,0-5.84-.06-8.7a7.4,7.4,0,0,1-1,1.8,6.24,6.24,0,0,1-3.41,2.41,3,3,0,0,1-1.88-.21c-1-.51-2-1.12-3.17-1.81s-2.3-1.45-3.48-2.27-2.36-1.66-3.52-2.54-2.16-1.74-3.13-2.58q-2.92,3.63-5.64,6.45A71.28,71.28,0,0,1,379,99.8a4.18,4.18,0,0,1-3.49.83A7,7,0,0,1,372,99.1a5.07,5.07,0,0,1-1.41-1.92,6.63,6.63,0,0,1-1.41-.9,5,5,0,0,1-1.74-3,3.54,3.54,0,0,1,.77-2.86q2.08-2.72,5.33-6.55t6.58-8q-.34-4.66-.59-9.61t-.46-9.89a4.06,4.06,0,0,1,1.43-3.62c1.05-.84,2.84-1.32,5.4-1.46s4.54.16,5.54.9a3.48,3.48,0,0,1,1.41,2.2,4,4,0,0,1,1.4.62,3.48,3.48,0,0,1,1.5,2.93V62.6c0,1.86,0,3.75,0,5.68s-.05,3.75-.07,5.47c0,1.38-.05,2.49-.08,3.36l.6.47q1.92,1.5,3.83,3.07t3.69,3.1l3.1,2.64a2.38,2.38,0,0,1,.63.77.91.91,0,0,1,.07.25l2.12,1.8a2,2,0,0,1,.25.25q0-5.43,0-10.83c0-3.83.07-7.71.14-11.64s.15-8,.25-12.22a3.69,3.69,0,0,1,2.16-3.69,8.65,8.65,0,0,1,3.83-.73,8.94,8.94,0,0,1,3.76.8,3.11,3.11,0,0,1,1.5,1.36,4,4,0,0,1,.3,1.07,6.81,6.81,0,0,1,1,.39,3.05,3.05,0,0,1,1.5,1.35,5.13,5.13,0,0,1,.39,2.2v7.8c0,1.65,0,3.33-.07,5l.45,0A3.67,3.67,0,0,1,428,71.73a4.31,4.31,0,0,1,.63,1.57,3.29,3.29,0,0,1,2.19,1.25,5.78,5.78,0,0,1,.8,3.31A5.25,5.25,0,0,1,430.64,81.44Z"/><path class="cls-2" d="M355.78,82.68a3.53,3.53,0,0,1-.58-1.22,2.92,2.92,0,0,1-.5-.17A4.53,4.53,0,0,1,353,79.87a4,4,0,0,1-.73-2.51c-.05-1.34-.09-2.71-.12-4.13,0-.44,0-.89,0-1.33l-1.8.06q-1.2,0-2.31,0c-.75,0-1.35,0-1.82,0q-.15,1.77-.27,3.51t-.27,3.36a6.58,6.58,0,0,1-1.66,4A4.68,4.68,0,0,1,341.5,84q4.19-.15,8-.26l7-.2h.12A5.06,5.06,0,0,1,355.78,82.68Z"/><path class="cls-1" d="M343.63,96.27q-3.09.11-5.95.27l-4.63.23c.11,1.69.21,3.44.31,5.24.05.8.09,1.57.14,2.34l1.48,0,5.37-.08,5.36-.08c1.72,0,3.1-.06,4.13-.11a2.51,2.51,0,0,0,1.16-.31,1.25,1.25,0,0,0,.3-1v-.08c.05-1.18.07-2.71,0-4.59,0-.74,0-1.44,0-2.12l-1.77.07Z"/><path class="cls-1" d="M353,79.87a4,4,0,0,1-.73-2.51c-.05-1.34-.09-2.71-.12-4.13,0-.44,0-.89,0-1.33l-1.8.06q-1.2,0-2.31,0c-.75,0-1.35,0-1.82,0q-.15,1.77-.27,3.51t-.27,3.36a6.58,6.58,0,0,1-1.66,4A4.68,4.68,0,0,1,341.5,84q4.19-.15,8-.26l7-.2h.12a5.06,5.06,0,0,1-.81-.85,3.53,3.53,0,0,1-.58-1.22,2.92,2.92,0,0,1-.5-.17A4.53,4.53,0,0,1,353,79.87Z"/><path class="cls-1" d="M53.84,75.51c0,.19,0,.36,0,.55L55.46,76q2.15-.15,3.24-.15a1.78,1.78,0,0,0,1-.31,1.36,1.36,0,0,0,.42-1.16V70.44l-6.36.48C53.8,72.56,53.81,74.09,53.84,75.51Z"/><path class="cls-1" d="M266.62,97.81a6.32,6.32,0,0,0-1.74,4.84,7.66,7.66,0,0,0,.77,3,7.19,7.19,0,0,0,3.31.55,6.45,6.45,0,0,0,6.83-7.45,8,8,0,0,0-.57-2.5,7.53,7.53,0,0,0-3.51-.6A7.14,7.14,0,0,0,266.62,97.81Z"/><path class="cls-3" d="M69,95.65c0,.61,0,1.21.07,1.77s.05,1.16.08,1.78,0,1.36,0,2.23.39,1.39,1.16,1.39H72c0-.28,0-.56,0-.81,0-.61,0-1.2-.08-1.77s0-1.16-.08-1.78,0-1.33,0-2.16A5.35,5.35,0,0,0,71,93.41a3.19,3.19,0,0,0-2.18-1,10.63,10.63,0,0,1,.1,1.06C69,94.31,69,95,69,95.65Z"/><path class="cls-3" d="M104.57,49a4.12,4.12,0,0,0-1.73-.93,4,4,0,0,1,.15,1.2c0,1.49-.11,3.33-.16,5.52s-.11,4.55-.19,7.1-.15,5.14-.23,7.79-.16,5.17-.23,7.56-.17,4.58-.27,6.56-.21,3.54-.31,4.67q-.46,4.4-5.71,4.17a8.44,8.44,0,0,1-1.72-.29,3.34,3.34,0,0,0,1,2,6,6,0,0,0,3.51,1.16c3.49.15,5.4-1.24,5.71-4.17.1-1.13.2-2.69.31-4.67s.19-4.17.27-6.56.15-4.91.23-7.56.15-5.25.23-7.79.14-4.92.19-7.1.1-4,.16-5.52A4,4,0,0,0,104.57,49Z"/><path class="cls-3" d="M50.63,52.05c0,1.54.07,3.22.12,5l2.74-.23c0-.68,0-1.34,0-2,0-1.55-.07-2.83-.12-3.86a4.1,4.1,0,0,0-1.39-3.28,3.94,3.94,0,0,0-1.56-.6,10.5,10.5,0,0,1,.14,1.06C50.57,49.22,50.61,50.51,50.63,52.05Z"/><path class="cls-3" d="M65.29,88.66l5.1-.54a4.11,4.11,0,0,0,2.39-.77,3.39,3.39,0,0,0,.85-2.24q.23-3.93.35-8.37t.11-9q0-4.55,0-9c0-2.95,0-5.75,0-8.37a3.4,3.4,0,0,0-1.35-3,4.49,4.49,0,0,0-1.54-.65,4.17,4.17,0,0,1,.08.8q0,3.95,0,8.38t0,9q0,4.55-.11,9t-.35,8.37A3.39,3.39,0,0,1,70,84.54a4.26,4.26,0,0,1-2.39.77l-5.09.54c-1.91.2-3.85.4-5.83.58s-3.88.32-5.71.42-3.43.13-4.82.08a5.92,5.92,0,0,1-2.58-.7,5.64,5.64,0,0,0,1.38,1.86,6.23,6.23,0,0,0,4,1.65c1.38.06,3,0,4.82-.07s3.73-.25,5.71-.43S63.39,88.87,65.29,88.66Z"/><path class="cls-3" d="M101.45,105.27a9.72,9.72,0,0,1,.15,1.18,6.32,6.32,0,0,1-.62,3.78,2.71,2.71,0,0,1-2,1.39c-1.86.2-4.3.39-7.33.54s-6.29.3-9.77.42-6.95.25-10.45.35-6.59.18-9.26.23a7.31,7.31,0,0,1-2.71-.39c.86,2.21,2.69,3.29,5.53,3.21q4-.08,9.26-.23c3.49-.1,7-.22,10.45-.35s6.73-.27,9.76-.42,5.48-.34,7.33-.54a2.76,2.76,0,0,0,2-1.39,6.4,6.4,0,0,0,.62-3.78C104.27,106.65,103.27,105.32,101.45,105.27Z"/><path class="cls-3" d="M86.71,53.86c0,1.78,0,3.72.07,5.83a21.21,21.21,0,0,1,2.24,0h.53c0-1,0-2,0-3V52a3.89,3.89,0,0,0-1.31-3.08,3.83,3.83,0,0,0-1.63-.8,4.59,4.59,0,0,1,.13,1.06Z"/><path class="cls-3" d="M88.94,70.18H86.78q-.07,4.25-.19,8.38t-.27,7.6a3.63,3.63,0,0,1-1.62,3.16,8,8,0,0,1-4,.85,9.11,9.11,0,0,1-2.28-.26,3.33,3.33,0,0,0,1.35,2.23A7.07,7.07,0,0,0,83.5,93a8.12,8.12,0,0,0,4-.85A3.68,3.68,0,0,0,89.14,89q.15-3.47.27-7.6T89.6,73h1.5V70.11C90.38,70.16,89.66,70.18,88.94,70.18Z"/><path class="cls-3" d="M51.13,76.2c.91,0,1.81-.09,2.72-.14,0-.19,0-.36,0-.55,0-1.42,0-3,0-4.59l6.36-.48v-3L51,68.1c0,1.65,0,3.18,0,4.59S51.08,75.28,51.13,76.2Z"/><path class="cls-3" d="M154.52,96.42a6.66,6.66,0,0,1,.14,1c0,1.71-.4,2.89-1.19,3.51a5,5,0,0,1-2.72,1.08q-10.17,1.05-20.12,1.64t-20.69.8a5.47,5.47,0,0,1-1.18-.13,3.5,3.5,0,0,0,.93,1.83,4.12,4.12,0,0,0,3.07,1.12q10.72-.21,20.68-.8t20.13-1.64a5,5,0,0,0,2.72-1.08c.79-.63,1.18-1.8,1.18-3.52a4.56,4.56,0,0,0-.94-2.85A2.87,2.87,0,0,0,154.52,96.42Z"/><path class="cls-3" d="M150.34,85.42q-4.05.48-8.5.83c-3,.24-6,.43-9.12.59s-6.24.29-9.37.39-6.19.14-9.16.14a9.27,9.27,0,0,1-3.56-.62,4.65,4.65,0,0,0,1.33,2A7.53,7.53,0,0,0,117,90.18q4.45,0,9.15-.13c3.14-.1,6.26-.22,9.37-.39s6.16-.36,9.13-.59,5.8-.51,8.49-.84q2.58-.27,2.58-4.31a5.55,5.55,0,0,0-.66-2.86,2,2,0,0,0-2-1h-.25a7.3,7.3,0,0,1,.08,1.08Q152.91,85.14,150.34,85.42Z"/><path class="cls-3" d="M151.8,61a3,3,0,0,1-2.37,1.46q-4.38.28-8,.45t-7,.28l-7,.21q-3.55.1-7.8.18c-.09,2.46-.19,4.73-.28,6.82s-.16,4-.21,5.71q0,1.68,2,1.68l.9,0c0-1.41.11-2.92.18-4.55.09-2.09.18-4.36.28-6.83q4.24-.06,7.8-.17l7-.21q3.42-.11,7-.28c2.4-.11,5-.26,8-.45a3,3,0,0,0,2.37-1.46,7.16,7.16,0,0,0,.83-3.76,5.2,5.2,0,0,0-.94-3.38,2.88,2.88,0,0,0-2.06-1.12,7.13,7.13,0,0,1,.19,1.68A7,7,0,0,1,151.8,61Z"/><path class="cls-3" d="M228.51,99.76c-.2,3.46-.45,6.68-.76,9.64a5.31,5.31,0,0,1-1.43,3.31,6.5,6.5,0,0,1-3.91,1.28,9,9,0,0,1-2.56-.11,3.38,3.38,0,0,0,1.35,2.21,5.92,5.92,0,0,0,4,.72,6.53,6.53,0,0,0,3.91-1.28,5.39,5.39,0,0,0,1.43-3.31q.45-4.45.75-9.64t.38-9.86a3.59,3.59,0,0,0-.53-2.19,2.47,2.47,0,0,0-2-.67h-.26v0Q228.88,94.49,228.51,99.76Z"/><path class="cls-3" d="M211.68,80a6.3,6.3,0,0,1-3,2.79,2.72,2.72,0,0,1-1.4.22,5.34,5.34,0,0,1-1.31-.3c-1-.35-2.1-.79-3.28-1.32l-3.65-1.61c-1.26-.56-2.51-1.13-3.76-1.74s-2.44-1.2-3.54-1.8c-1.06,1-2,2-2.86,2.9l-2.49,2.52c-.8.8-1.63,1.58-2.48,2.33s-1.81,1.51-2.86,2.26a7.43,7.43,0,0,1-1.51.87,3.53,3.53,0,0,1-1.73.11,7.14,7.14,0,0,1-2.68-.85,5.75,5.75,0,0,0,1.54,2,7.25,7.25,0,0,0,4,1.7,3.4,3.4,0,0,0,1.73-.12,6.63,6.63,0,0,0,1.5-.86c1.06-.76,2-1.51,2.87-2.26s1.68-1.53,2.48-2.34,1.63-1.64,2.48-2.52l2.86-2.9c1.11.61,2.29,1.21,3.54,1.81s2.51,1.18,3.77,1.73l3.65,1.62q1.77.8,3.27,1.32a5.32,5.32,0,0,0,1.32.3,2.58,2.58,0,0,0,1.39-.23,6.25,6.25,0,0,0,3-2.78,8.71,8.71,0,0,0,1.17-3.84,2.75,2.75,0,0,0-1.06-2.49c-.59-.37-1.21-.73-1.82-1.1a6,6,0,0,1,.06.77A8.51,8.51,0,0,1,211.68,80Z"/><path class="cls-3" d="M233,79.32c0-.83.07-1.67.09-2.56q.12-3.77.15-7.76t0-8q0-4-.07-7.56a5.29,5.29,0,0,0-.42-2.34,2.75,2.75,0,0,0-1.62-1.28c-.27-.1-.56-.2-.85-.28a8.77,8.77,0,0,1,.07,1.08q.08,3.54.07,7.57t0,8q0,4-.15,7.76t-.34,6.77a4.94,4.94,0,0,1-.87,2.6,5.07,5.07,0,0,1-2.22,1.54,6.93,6.93,0,0,1-1.28.27c-.55.07-1.15.12-1.81.15a11.58,11.58,0,0,1-1.88-.08A6.33,6.33,0,0,1,221,85a3.58,3.58,0,0,0,.57,1.25,4.89,4.89,0,0,0,.77.8c1.48,0,2.81,0,4,0a2.46,2.46,0,0,1,2,.68,1.76,1.76,0,0,1,.12.2,6.71,6.71,0,0,0,1.19-.25,5.07,5.07,0,0,0,2.22-1.54,4.94,4.94,0,0,0,.86-2.6.57.57,0,0,0,0-.13,4.88,4.88,0,0,1-.44-1.4A3.65,3.65,0,0,1,233,79.32Z"/><path class="cls-3" d="M210,97.54l-8.21.23q-4.25.11-8.28.15t-7,0l-.25,0c0,.15.08.3.13.44a3.16,3.16,0,0,0,2.93,2.41q2.94.08,7,0t8.28-.15l8.21-.22,4-.11c0-1,0-2-.05-2.9Z"/><path class="cls-3" d="M173.55,57.53a4.92,4.92,0,0,1-.69-.06,3.83,3.83,0,0,0,.8,1.78,3.43,3.43,0,0,0,2.71,1.09q3.56,0,7.59-.12c0-1-.07-2-.1-2.92Q178.3,57.53,173.55,57.53Z"/><path class="cls-3" d="M212.62,57.75l.82,0a3.71,3.71,0,0,0,1-.78c.68-.78,1-2.1.87-4-.14-2.92-1.17-4.48-3.09-4.7a9.13,9.13,0,0,1,.27,1.88c.1,1.86-.19,3.17-.87,4a3.91,3.91,0,0,1-2.74,1.32c-1.26.15-2.88.31-4.86.49l-6.59.56v9.19l2.82,1.5V59.29l6.59-.57.89-.08a5.85,5.85,0,0,1,1.75-.66A25.84,25.84,0,0,1,212.62,57.75Z"/><path class="cls-3" d="M212.85,68.37c-1.51,0-2.51,0-3-.08a6.81,6.81,0,0,1-1-.13,5.2,5.2,0,0,0,.71,1.59,3.85,3.85,0,0,0,3.05,1.36c.5,0,1.51.07,3,.07l2.2,0c0-1,0-1.93-.05-2.93C216,68.32,214.35,68.37,212.85,68.37Z"/><path class="cls-3" d="M264.88,102.65a6.32,6.32,0,0,1,1.74-4.84,7.14,7.14,0,0,1,5.09-2.12,7.53,7.53,0,0,1,3.51.6,5.12,5.12,0,0,0-1.52-2.06,7,7,0,0,0-4.81-1.36A7.1,7.1,0,0,0,263.81,95a6.26,6.26,0,0,0-1.74,4.84,6.89,6.89,0,0,0,1.95,4.74,5.21,5.21,0,0,0,1.63,1.12A7.66,7.66,0,0,1,264.88,102.65Z"/><path class="cls-3" d="M284.77,90.67l-.39-.26a11.71,11.71,0,0,1,1.16,1.94,15.61,15.61,0,0,1,1.39,6,15.78,15.78,0,0,1-.84,6,13.14,13.14,0,0,1-3.2,5,16.14,16.14,0,0,1-5.61,3.62,24.66,24.66,0,0,1-8.18,1.6,23.33,23.33,0,0,1-8-.87,16,16,0,0,1-4.76-2.34,12.43,12.43,0,0,0,1.9,2.09,15.09,15.09,0,0,0,5.67,3.07,23.39,23.39,0,0,0,8.05.87,25,25,0,0,0,8.18-1.6,16,16,0,0,0,5.61-3.63,13.11,13.11,0,0,0,3.2-5,16.72,16.72,0,0,0-.55-12A12.27,12.27,0,0,0,284.77,90.67Z"/><path class="cls-3" d="M272.52,84.53a6.17,6.17,0,0,0,1.24-1.59,7.77,7.77,0,0,0,1.08-3.55,2.75,2.75,0,0,0-1-2.3l-1.93-1.33a4.1,4.1,0,0,1,.09.81A8,8,0,0,1,271,80.12a5.85,5.85,0,0,1-2.75,2.58,3.13,3.13,0,0,1-2.51-.07c-.93-.37-2-.85-3.1-1.43s-2.31-1.2-3.52-1.88-2.4-1.37-3.59-2.09-2.28-1.4-3.31-2q-2.92,3.13-5.53,5.74a60.16,60.16,0,0,1-5.54,4.91,6.32,6.32,0,0,1-1.39.81,3.26,3.26,0,0,1-1.6.1,7.52,7.52,0,0,1-2.66-.8,4.71,4.71,0,0,0,1.71,2.15,7.7,7.7,0,0,0,3.76,1.47,3.18,3.18,0,0,0,1.61-.11,6.46,6.46,0,0,0,1.39-.8,63.08,63.08,0,0,0,5.54-4.91Q252.07,81.13,255,78c1,.65,2.13,1.33,3.31,2s2.38,1.42,3.59,2.09,2.38,1.3,3.52,1.88c.46.24.9.45,1.33.65.55-.06,1.09-.12,1.66-.16A29.66,29.66,0,0,1,272.52,84.53Z"/><path class="cls-3" d="M273.14,67.2l-3.24.07c-1,0-1.87,0-2.61,0a12.19,12.19,0,0,1-1.53-.07,6.54,6.54,0,0,1-.7-.1,4.69,4.69,0,0,0,.69,1.66,3.59,3.59,0,0,0,2.82,1.26,12.27,12.27,0,0,0,1.54.07c.74,0,1.61,0,2.61,0L276,70l.65,0c0-1,0-1.92-.06-2.9C275.44,67.15,274.3,67.18,273.14,67.2Z"/><path class="cls-3" d="M290.69,55a2.61,2.61,0,0,0-1.5-1.18,9.36,9.36,0,0,0-1-.31,7.21,7.21,0,0,1,0,.83c.05,2.19.07,4.41.07,6.69s0,4.54,0,6.79-.07,4.45-.14,6.58-.17,4.14-.31,6A4,4,0,0,1,285,84.23a6.2,6.2,0,0,1-1.18.25c-.51.07-1.07.11-1.68.14a11.06,11.06,0,0,1-1.74-.07,5,5,0,0,1-.63-.12,3.19,3.19,0,0,0,.56,1.33,4.11,4.11,0,0,0,1.57,1.29,4.93,4.93,0,0,0,1.32.31,10,10,0,0,0,1.74.07,16.31,16.31,0,0,0,1.67-.14,7.42,7.42,0,0,0,1.19-.24,4.65,4.65,0,0,0,2.05-1.43,4.58,4.58,0,0,0,.8-2.4c.14-1.86.25-3.85.32-6s.11-4.33.14-6.58,0-4.52,0-6.79,0-4.51-.07-6.69A5,5,0,0,0,290.69,55Z"/><path class="cls-3" d="M257.64,59.26c0,2.12-.08,4.12-.17,6,.92.55,1.87,1.14,2.86,1.77.06-1.6.11-3.24.13-5,0-2.11,0-4.42,0-6.93a3.36,3.36,0,0,0-1.71-3.06,4.71,4.71,0,0,0-1.2-.5,3.57,3.57,0,0,1,.09.74Q257.68,56.1,257.64,59.26Z"/><path class="cls-3" d="M341.5,84A4.68,4.68,0,0,0,344,82.84a6.58,6.58,0,0,0,1.66-4q.17-1.62.27-3.36t.27-3.51c.47,0,1.07,0,1.82,0s1.51,0,2.31,0l1.8-.06c0-1,0-2,0-3-.62,0-1.34.09-2.17.11l-2.43.08c-.79,0-1.57,0-2.31,0s-1.35,0-1.81,0q-.17,1.79-.27,3.51T342.82,76a6.64,6.64,0,0,1-1.66,4q-1.35,1.35-4.83,1.35a10.15,10.15,0,0,1-2.51-.27,4.84,4.84,0,0,0,.93,1.78,4.63,4.63,0,0,0,3.1,1.24l3.46-.12Z"/><path class="cls-3" d="M333.36,102c-.1-1.8-.2-3.55-.31-5.24l4.63-.23q2.86-.17,5.95-.27l5.9-.24L351.3,96c0-1,0-2-.07-2.94l-4.52.2-5.9.23q-3.09.12-5.94.27l-4.63.23c.1,1.7.2,3.45.31,5.25s.2,3.52.31,5.17l2.64,0C333.45,103.58,333.41,102.81,333.36,102Z"/><path class="cls-3" d="M363.19,91.25c-.06,2.26-.13,4.56-.23,6.9s-.21,4.54-.31,6.6-.21,3.6-.31,4.63a3.68,3.68,0,0,1-1,2.32,4,4,0,0,1-2.13.85q-2.93.23-7.44.42t-9.38.31q-4.86.12-9.49.19c-3.09,0-5.68.08-7.79.08a9.45,9.45,0,0,1-2.42-.27,4.49,4.49,0,0,0,1.14,2,6.08,6.08,0,0,0,4.09,1.12q3.17,0,7.8-.08c3.09-.05,6.25-.12,9.49-.19s6.37-.18,9.37-.31,5.5-.27,7.45-.43a3.78,3.78,0,0,0,2.12-.85,3.63,3.63,0,0,0,1.05-2.31c.1-1,.2-2.57.3-4.63s.21-4.26.31-6.6.18-4.64.23-6.9.05-4.09,0-5.48a2.59,2.59,0,0,0-.5-1.7,1.92,1.92,0,0,0-1.58-.62h-.72C363.23,87.6,363.23,89.24,363.19,91.25Z"/><path class="cls-3" d="M367.7,52.17a5.55,5.55,0,0,0-.42-2.4,2.92,2.92,0,0,0-1.66-1.31c-.26-.1-.54-.19-.82-.27a8.13,8.13,0,0,1,.08,1.16q.17,7.24,0,14.35t-.5,13.35a5.05,5.05,0,0,1-.89,2.66,5.11,5.11,0,0,1-2.27,1.58,6.55,6.55,0,0,1-1.31.27c-.57.08-1.19.13-1.86.16a11,11,0,0,1-1.92-.08,6.77,6.77,0,0,1-1-.18,3.53,3.53,0,0,0,.58,1.22,5.06,5.06,0,0,0,.81.85c2,0,3.5-.07,4.51-.07a2,2,0,0,1,1.59.61,1.75,1.75,0,0,1,.18.29,6.79,6.79,0,0,0,1.21-.25,5.25,5.25,0,0,0,2.27-1.58,5.14,5.14,0,0,0,.89-2.66q.39-6.25.5-13.35T367.7,52.17Z"/><path class="cls-3" d="M319.74,56.18q-5,0-10.49-.19a3.91,3.91,0,0,1-.58-.1,3.83,3.83,0,0,0,.85,1.56,3.89,3.89,0,0,0,2.55,1.35c3.65.11,7.15.17,10.49.2,2.48,0,5.05,0,7.72,0,0-1,0-1.92,0-2.81C326.61,56.22,323.09,56.2,319.74,56.18Z"/><path class="cls-3" d="M343.82,51.74v3.2c0,1.11,0,2.25-.08,3.44.95,0,1.92-.06,2.89-.08,0-.18,0-.36,0-.54V50.55a4.16,4.16,0,0,0-.39-2,2.41,2.41,0,0,0-1.16-1,4.41,4.41,0,0,0-1.29-.33c0,.18,0,.36,0,.56Z"/><path class="cls-3" d="M430.78,74.55a3.29,3.29,0,0,0-2.19-1.25,8.28,8.28,0,0,1,.17,1.74,5.28,5.28,0,0,1-.94,3.59,4.38,4.38,0,0,1-2.61,1.28,11.29,11.29,0,0,1-1.67.21c-.65,0-1.35.07-2.09.07-.19,3.62-.39,7.24-.63,10.83s-.53,7.17-.9,10.7a3.84,3.84,0,0,1-1.08,2.47,5,5,0,0,1-4.28,1.56,8.66,8.66,0,0,1-1.74-.25,3,3,0,0,0,.62,1.51,3.76,3.76,0,0,0,1.56,1.14,7.86,7.86,0,0,0,2.37.42,5.57,5.57,0,0,0,2.16-.21,5.75,5.75,0,0,0,2.13-1.35,4,4,0,0,0,1.08-2.48q.56-5.3.9-10.69T424.27,83c.74,0,1.44,0,2.09-.07a11.47,11.47,0,0,0,1.67-.21,4.39,4.39,0,0,0,2.61-1.29,5.25,5.25,0,0,0,.94-3.58A5.78,5.78,0,0,0,430.78,74.55Z"/><path class="cls-3" d="M409.89,89.46a2,2,0,0,0-.25-.25l-2.12-1.8a2.31,2.31,0,0,1,.07.86,7.3,7.3,0,0,1-1.53,4,6.34,6.34,0,0,1-3.41,2.4,3.06,3.06,0,0,1-1.89-.21c-1-.51-2-1.11-3.16-1.81s-2.3-1.45-3.49-2.26-2.35-1.66-3.51-2.55-2.16-1.74-3.14-2.57q-2.93,3.61-5.64,6.44A71.28,71.28,0,0,1,376.18,97a4.13,4.13,0,0,1-3.48.83,7.78,7.78,0,0,1-2.08-.63A5.07,5.07,0,0,0,372,99.1a7,7,0,0,0,3.48,1.53A4.18,4.18,0,0,0,379,99.8a71.28,71.28,0,0,0,5.64-5.26q2.72-2.82,5.64-6.45c1,.84,2,1.7,3.13,2.58s2.34,1.73,3.52,2.54,2.34,1.57,3.48,2.27,2.2,1.3,3.17,1.81a3,3,0,0,0,1.88.21,6.24,6.24,0,0,0,3.41-2.41,7.4,7.4,0,0,0,1-1.8c0-1.05,0-2.1,0-3.14Z"/><path class="cls-3" d="M393,59.79c0,1.85,0,3.75,0,5.67s-.05,3.75-.07,5.47-.06,3-.11,4l2.85,2.21c0-.87.06-2,.08-3.36,0-1.72,0-3.54.07-5.47s0-3.82,0-5.68V57.94a3.48,3.48,0,0,0-1.5-2.93,4,4,0,0,0-1.4-.62,3.4,3.4,0,0,1,.08.73Z"/><path class="cls-3" d="M421.94,62.5q0,3.84-.14,7.8h1.81c.38,0,.74,0,1.08,0,0-1.69.07-3.37.07-5v-7.8a5.13,5.13,0,0,0-.39-2.2,3.05,3.05,0,0,0-1.5-1.35,6.81,6.81,0,0,0-1-.39,7.66,7.66,0,0,1,.08,1.12Z"/><path class="cls-4" d="M60.08,56.29q0-1.77,0-3.66c0-1.26,0-2.71,0-4.36A5.68,5.68,0,0,1,60.93,45c.62-.87,2-1.31,4.25-1.31s3.77.32,4.67,1a3.42,3.42,0,0,1,1.35,3q0,3.95,0,8.38t0,9q0,4.55-.11,9t-.35,8.37A3.39,3.39,0,0,1,70,84.54a4.26,4.26,0,0,1-2.39.77l-5.09.54c-1.91.2-3.85.4-5.83.58s-3.88.32-5.71.42-3.43.13-4.82.08a6.22,6.22,0,0,1-4-1.66,5.67,5.67,0,0,1-1.93-4q-.39-6.94-.66-15.13t-.42-17a9.67,9.67,0,0,1,.19-2,3,3,0,0,1,.81-1.5,4.14,4.14,0,0,1,1.77-1,12.71,12.71,0,0,1,3-.42c2-.1,3.42.14,4.25.73a4.18,4.18,0,0,1,1.39,3.28c0,1,.09,2.32.11,3.86s.07,3.22.12,5Zm.08,11.11L51,68.1c0,1.65,0,3.18,0,4.59s.06,2.59.11,3.51c1.44,0,2.88-.13,4.33-.23s2.51-.15,3.24-.15a1.78,1.78,0,0,0,1-.31,1.36,1.36,0,0,0,.42-1.16ZM101,110.23a2.71,2.71,0,0,1-2,1.39c-1.86.2-4.3.39-7.33.54s-6.29.3-9.77.42-6.95.25-10.45.35-6.59.18-9.26.23q-5.4.16-6-5.24-.32-2.72-.58-6.1c-.18-2.26-.27-4.71-.27-7.33q0-3.7,2.55-4.4a19.08,19.08,0,0,1,4-.58,25.46,25.46,0,0,1,3.7,0,3.55,3.55,0,0,1,2.67,1,5.38,5.38,0,0,1,.73,2.9c0,.82,0,1.54,0,2.16s0,1.21.07,1.77.06,1.16.08,1.78,0,1.36,0,2.23.39,1.39,1.16,1.39q2.39,0,6.17,0t7.91-.11l7.91-.16q3.78-.08,6.17-.07c1.91,0,2.93,1.33,3.09,4A6.32,6.32,0,0,1,101,110.23Zm-12-40H86.78q-.07,4.25-.19,8.38t-.27,7.6a3.63,3.63,0,0,1-1.62,3.16,8,8,0,0,1-4,.85A6.93,6.93,0,0,1,77,89.32c-.91-.57-1.41-1.7-1.51-3.4,0-.87-.1-2.19-.15-4s-.09-3.77-.12-6,0-4.56-.08-7.06S75,64,75,61.58s0-4.63,0-6.71V49.66a4.66,4.66,0,0,1,1.15-3.32c.78-.82,2.29-1.26,4.56-1.31s3.83.31,4.7,1.08a3.89,3.89,0,0,1,1.32,3.08v4.67c0,1.78,0,3.72.07,5.83a21.21,21.21,0,0,1,2.24,0c.72,0,1.42,0,2.08,0V53.9c0-1.9,0-3.44.08-4.63a4.41,4.41,0,0,1,1.16-3.2q1.16-1.2,4.47-1.2,3.63,0,4.94,1.32A3.94,3.94,0,0,1,103,49.27c0,1.49-.11,3.33-.16,5.52s-.11,4.55-.19,7.1-.15,5.14-.23,7.79-.16,5.17-.23,7.56-.17,4.58-.27,6.56-.21,3.54-.31,4.67q-.46,4.4-5.71,4.17a6,6,0,0,1-3.51-1.16c-.8-.67-1.2-1.85-1.2-3.55V84.81c0-1.26,0-2.67,0-4.21s0-3.2,0-5V70.11C90.38,70.16,89.66,70.18,88.94,70.18Z"/><path class="cls-4" d="M106.88,103.39a4.6,4.6,0,0,1-1.12-3.49,5,5,0,0,1,1-3.55A3.85,3.85,0,0,1,109.66,95q5.64-.28,10.9-.52c3.51-.17,7-.32,10.34-.46s6.77-.24,10.14-.31,6.79-.13,10.27-.17a2.94,2.94,0,0,1,2.4,1,4.66,4.66,0,0,1,.95,2.86c0,1.71-.4,2.89-1.19,3.51a5,5,0,0,1-2.72,1.08q-10.17,1.05-20.12,1.64t-20.69.8A4.14,4.14,0,0,1,106.88,103.39Zm46-22.29q0,4-2.57,4.32-4.05.48-8.5.83c-3,.24-6,.43-9.12.59s-6.24.29-9.37.39-6.19.14-9.16.14a7.55,7.55,0,0,1-5-1.47c-1.14-1-1.75-2.55-1.85-4.73,0-1.63-.07-3.5-.07-5.61s0-4.31,0-6.58.06-4.54.1-6.79.14-4.35.28-6.31a2.73,2.73,0,0,1,3-2.78c3.52-.14,6.87-.24,10-.31l9.36-.18c3.09,0,6.21-.06,9.37,0s6.48.05,10,.1a2.91,2.91,0,0,1,2.34,1.15,5.28,5.28,0,0,1,.94,3.38A7,7,0,0,1,151.8,61a3,3,0,0,1-2.37,1.46q-4.38.28-8,.45t-7,.28l-7,.21q-3.55.1-7.8.18c-.09,2.46-.19,4.73-.28,6.82s-.16,4-.21,5.71q0,1.68,2,1.68l7.46-.14c2.36-.05,4.71-.08,7-.11s4.68-.06,7.07-.1,4.91-.12,7.56-.21a2,2,0,0,1,2,1A5.58,5.58,0,0,1,152.91,81.1Z"/><path class="cls-4" d="M197.41,65.66l7.16,3.8c2.51,1.33,4.91,2.72,7.22,4.18a2.71,2.71,0,0,1,1.06,2.48A8.51,8.51,0,0,1,211.68,80a6.3,6.3,0,0,1-3,2.79,2.72,2.72,0,0,1-1.4.22,5.34,5.34,0,0,1-1.31-.3c-1-.35-2.1-.79-3.28-1.32l-3.65-1.61c-1.26-.56-2.51-1.13-3.76-1.74s-2.44-1.2-3.54-1.8c-1.06,1-2,2-2.86,2.9l-2.49,2.52c-.8.8-1.63,1.58-2.48,2.33s-1.81,1.51-2.86,2.26a7.43,7.43,0,0,1-1.51.87,3.53,3.53,0,0,1-1.73.11,7.22,7.22,0,0,1-4-1.7,5.57,5.57,0,0,1-2.07-3.65,3.88,3.88,0,0,1,.9-3.16Q175.21,76,178,73t6.21-6.44c-.1-1.45-.18-3-.23-4.55s-.1-3.15-.15-4.71q-5.56.23-10.31.23a3.44,3.44,0,0,1-2.71-1.1c-.65-.72-1-2-1.06-4a7.7,7.7,0,0,1,.76-4,3.25,3.25,0,0,1,2.78-1.61q8.13-.47,17.13-.79t18.33-.65q3.47-.06,3.69,4.75c.1,1.86-.19,3.17-.87,4a3.91,3.91,0,0,1-2.74,1.32c-1.26.15-2.88.31-4.86.49l-6.59.56Zm31.1,34.1c-.2,3.46-.45,6.68-.76,9.64a5.31,5.31,0,0,1-1.43,3.31,6.5,6.5,0,0,1-3.91,1.28,6,6,0,0,1-4-.71,3.39,3.39,0,0,1-1.39-2.45c-.1-1.76-.17-3.89-.19-6.4s-.06-4.87-.11-7.08l-6.74.19-8.21.23q-4.25.11-8.28.15t-7,0a3.15,3.15,0,0,1-2.94-2.41,6.43,6.43,0,0,1-.26-2.63,7.66,7.66,0,0,1,.64-2.72A3.4,3.4,0,0,1,185,88.88a3.35,3.35,0,0,1,1.73-.56q2.49-.15,5.72-.3t6.89-.27q3.66-.1,7.42-.26t7.34-.23l6.74-.15c2.11,0,3.94-.07,5.49-.07a2.46,2.46,0,0,1,2,.68,3.59,3.59,0,0,1,.52,2.18Q228.88,94.49,228.51,99.76Zm-15.89-42,5.12-.3V54c0-1.13,0-2.25.08-3.36a3.61,3.61,0,0,1,2.33-3.76,11.33,11.33,0,0,1,4.14-.64,11.6,11.6,0,0,1,4.07.72A2.78,2.78,0,0,1,230,48.27a5.41,5.41,0,0,1,.41,2.33q.08,3.54.07,7.57t0,8q0,4-.15,7.76t-.34,6.77a4.94,4.94,0,0,1-.87,2.6,5.07,5.07,0,0,1-2.22,1.54,6.93,6.93,0,0,1-1.28.27c-.55.07-1.15.12-1.81.15a11.58,11.58,0,0,1-1.88-.08,4.92,4.92,0,0,1-1.43-.34,4.39,4.39,0,0,1-1.69-1.39A3.91,3.91,0,0,1,218,81q-.07-2.79-.11-6c0-2.16-.06-4.41-.11-6.77-1.81.1-3.47.15-5,.15s-2.51,0-3-.08a3.85,3.85,0,0,1-3.05-1.35,6.83,6.83,0,0,1-1-3.54c-.05-1.86.25-3.16.9-3.92a4.89,4.89,0,0,1,2.79-1.5A25.84,25.84,0,0,1,212.62,57.75Z"/><path class="cls-4" d="M264.22,69.61c2.42,1.62,4.69,3.18,6.83,4.66a2.75,2.75,0,0,1,1,2.3A8,8,0,0,1,271,80.12a5.85,5.85,0,0,1-2.75,2.58,3.13,3.13,0,0,1-2.51-.07c-.93-.37-2-.85-3.1-1.43s-2.31-1.2-3.52-1.88-2.4-1.37-3.59-2.09-2.28-1.4-3.31-2q-2.92,3.13-5.53,5.74a60.16,60.16,0,0,1-5.54,4.91,6.32,6.32,0,0,1-1.39.81,3.26,3.26,0,0,1-1.6.1,7.78,7.78,0,0,1-3.77-1.46,4.73,4.73,0,0,1-2-3.28,3.68,3.68,0,0,1,.84-2.92c.74-.88,1.58-1.85,2.51-2.89s1.89-2.13,2.89-3.24,2-2.25,3.1-3.41,2.13-2.3,3.2-3.42c-.14-2-.32-4.11-.56-6.33s-.39-4.25-.48-6.06q-.36-4.66,6.61-5.23c2.56-.18,4.4.07,5.54.77a3.37,3.37,0,0,1,1.71,3.06q0,3.77,0,6.93c0,2.12-.08,4.12-.17,6Q260.61,67.17,264.22,69.61Zm18.67,39.77a16.14,16.14,0,0,1-5.61,3.62,24.66,24.66,0,0,1-8.18,1.6,23.33,23.33,0,0,1-8-.87,15.26,15.26,0,0,1-5.68-3.06A12.68,12.68,0,0,1,252,106a14.7,14.7,0,0,1-1.12-5.75A15.33,15.33,0,0,1,252,94.68a14,14,0,0,1,3.17-4.88,16.89,16.89,0,0,1,5.43-3.58,23.43,23.43,0,0,1,7.83-1.71,24.74,24.74,0,0,1,7.81.63A16,16,0,0,1,282,87.85a12.12,12.12,0,0,1,3.59,4.5,15.61,15.61,0,0,1,1.39,6,15.78,15.78,0,0,1-.84,6A13.14,13.14,0,0,1,282.89,109.38Zm-9.82-52.1,3.48-.14c0-.47,0-.92,0-1.36s0-.89,0-1.36a3.36,3.36,0,0,1,2.16-3.48,10.21,10.21,0,0,1,3.83-.59,10.66,10.66,0,0,1,3.76.66,2.55,2.55,0,0,1,1.5,1.18,4.86,4.86,0,0,1,.38,2.16c.05,2.19.07,4.41.07,6.69s0,4.54,0,6.79-.07,4.45-.14,6.58-.17,4.14-.31,6A4,4,0,0,1,285,84.23a6.2,6.2,0,0,1-1.18.25c-.51.07-1.07.11-1.67.14a11.14,11.14,0,0,1-1.75-.07,5,5,0,0,1-1.32-.32,4.1,4.1,0,0,1-1.57-1.29,3.63,3.63,0,0,1-.66-2.26q-.06-3.14-.14-6.55c0-2.27-.09-4.62-.14-7-1.11.05-2.25.08-3.41.1l-3.24.07c-1,0-1.87,0-2.61,0a12.19,12.19,0,0,1-1.53-.07A3.53,3.53,0,0,1,262.94,66a6.2,6.2,0,0,1-.94-3.27,5.35,5.35,0,0,1,.83-3.62,4.44,4.44,0,0,1,2.58-1.39c.32-.05.87-.1,1.64-.14s1.67-.1,2.71-.14Zm-4.11,49a6.45,6.45,0,0,0,6.83-7.45,6.06,6.06,0,0,0-2.09-4.56,7,7,0,0,0-4.81-1.36A7.1,7.1,0,0,0,263.81,95a6.26,6.26,0,0,0-1.74,4.84,6.89,6.89,0,0,0,1.95,4.74A6.24,6.24,0,0,0,269,106.24Z"/><path class="cls-4" d="M343.82,51.74v3.2c0,1.11,0,2.25-.08,3.44,1.44-.05,2.89-.09,4.36-.12s2.74,0,3.82,0V53.94c0-1.47,0-3,.08-4.51a3.71,3.71,0,0,1,2.39-3.86,11.48,11.48,0,0,1,4.24-.66,12.09,12.09,0,0,1,4.17.73A2.86,2.86,0,0,1,364.46,47a5.48,5.48,0,0,1,.42,2.39q.17,7.24,0,14.35t-.5,13.35a5.05,5.05,0,0,1-.89,2.66,5.11,5.11,0,0,1-2.27,1.58,6.55,6.55,0,0,1-1.31.27c-.57.08-1.19.13-1.86.16a11,11,0,0,1-1.92-.08,5.47,5.47,0,0,1-1.47-.35A4.53,4.53,0,0,1,353,79.87a4,4,0,0,1-.73-2.51c-.05-1.34-.09-2.71-.12-4.13s0-2.84,0-4.28c-.62,0-1.34.09-2.17.11l-2.43.08c-.79,0-1.57,0-2.31,0s-1.35,0-1.81,0q-.17,1.79-.27,3.51T342.82,76a6.64,6.64,0,0,1-1.66,4q-1.35,1.35-4.83,1.35c-2.16,0-3.62-.43-4.39-1.31A6.64,6.64,0,0,1,330.62,76q-.22-4.86-.31-10.22t0-9.53c-3.7,0-7.22,0-10.57,0s-6.84-.09-10.49-.19a4,4,0,0,1-2.55-1.36c-.82-.84-1.21-2.3-1.16-4.36a7.36,7.36,0,0,1,.93-3.81A3.78,3.78,0,0,1,309.56,45l7.25-.31,6.83-.27q3.36-.12,6.71-.16t7,0c1.13,0,2.11,0,2.93,0a5.51,5.51,0,0,1,2,.39,2.43,2.43,0,0,1,1.15,1,4.19,4.19,0,0,1,.39,2Zm18.52,57.64a3.68,3.68,0,0,1-1,2.32,4,4,0,0,1-2.13.85q-2.93.23-7.44.42t-9.38.31q-4.86.12-9.49.19c-3.09,0-5.68.08-7.79.08a6,6,0,0,1-4.09-1.12,5.93,5.93,0,0,1-1.55-3.82c-.1-.87-.19-2.2-.26-4S319,101,318.89,99s-.19-4-.26-5.9-.12-3.48-.12-4.67a3.58,3.58,0,0,1,.89-2.66,3.54,3.54,0,0,1,2.43-1c.92,0,2.4-.12,4.43-.2l6.91-.27,8.14-.3c2.86-.11,5.58-.2,8.18-.27l7-.2c2.06,0,3.6-.07,4.63-.07a2,2,0,0,1,1.59.61,2.67,2.67,0,0,1,.5,1.7c.05,1.39.05,3.22,0,5.48s-.13,4.56-.23,6.9-.21,4.54-.31,6.6S362.44,108.35,362.34,109.38Zm-11-6.71c.05-1.18.07-2.71,0-4.59s-.06-3.56-.11-5.06l-4.52.2-5.9.23q-3.09.12-5.94.27l-4.63.23c.1,1.7.2,3.45.31,5.25s.2,3.52.31,5.17l4.12,0,5.37-.08,5.36-.08c1.72,0,3.1-.06,4.13-.11a2.51,2.51,0,0,0,1.16-.31,1.25,1.25,0,0,0,.3-1Z"/><path class="cls-4" d="M390.6,87.85c-1.12-.88-2.16-1.74-3.14-2.57q-2.93,3.61-5.64,6.44A71.28,71.28,0,0,1,376.18,97a4.13,4.13,0,0,1-3.48.83,7,7,0,0,1-3.49-1.53,5,5,0,0,1-1.74-3,3.54,3.54,0,0,1,.77-2.86q2.08-2.72,5.33-6.55t6.58-8q-.34-4.66-.59-9.61t-.46-9.89a4.06,4.06,0,0,1,1.43-3.62c1.05-.84,2.85-1.32,5.4-1.46s4.54.16,5.54.9A3.51,3.51,0,0,1,393,55.12v4.67c0,1.85,0,3.75,0,5.67s-.05,3.75-.07,5.47-.06,3-.11,4c1,.79,2.17,1.68,3.45,2.68s2.56,2,3.83,3.07,2.51,2.07,3.69,3.1l3.1,2.64a2.38,2.38,0,0,1,.63.77,2,2,0,0,1,.14,1.11,7.3,7.3,0,0,1-1.53,4,6.34,6.34,0,0,1-3.41,2.4,3.06,3.06,0,0,1-1.89-.21c-1-.51-2-1.11-3.16-1.81s-2.3-1.45-3.49-2.26S391.76,88.74,390.6,87.85ZM421.94,62.5q0,3.84-.14,7.8h1.81c.56,0,1.07,0,1.53.07A3.67,3.67,0,0,1,428,71.73a5.72,5.72,0,0,1,.8,3.31,5.28,5.28,0,0,1-.94,3.59,4.38,4.38,0,0,1-2.61,1.28,11.29,11.29,0,0,1-1.67.21c-.65,0-1.35.07-2.09.07-.19,3.62-.39,7.24-.63,10.83s-.53,7.17-.9,10.69a3.84,3.84,0,0,1-1.08,2.48,5,5,0,0,1-4.28,1.56,8.2,8.2,0,0,1-2.37-.41,3.84,3.84,0,0,1-1.57-1.15A3.38,3.38,0,0,1,410,102c0-4-.07-8-.07-11.84s0-7.69,0-11.52.07-7.71.14-11.64.15-8,.25-12.22a3.69,3.69,0,0,1,2.16-3.69,8.65,8.65,0,0,1,3.83-.73,8.94,8.94,0,0,1,3.76.8,3.11,3.11,0,0,1,1.5,1.36,5.22,5.22,0,0,1,.38,2.19Z"/><path class="cls-4" d="M201.39,10c-3-3-8.41-3.21-12.28-2a3.91,3.91,0,0,0-2.77,2.78c-.46,3.33.37,6.8.4,10.17,0,.17,0,.34,0,.51a8.16,8.16,0,0,0-5.76,5c-1.12,3.22.63,6.91,4.36,6.77a4.51,4.51,0,0,0,1.16-.22,2.87,2.87,0,0,0,.31,0c2.54-.6,5.19-1.89,6.34-4.28a9.39,9.39,0,0,0,1.39-4.13,37.14,37.14,0,0,0,0-6.15c0-.76-.23-1.84-.39-2.88,2,.27,3.84,1.29,3.51,3.52-.72,5,6.93,7.16,7.66,2.11C206,16.75,204.47,13.05,201.39,10Z"/><path class="cls-4" d="M392.35,26.4c0-.5,0-1,0-1.54.07-3.74,1.12-9.23-2.71-11.43-3.1-1.78-9.6-2.22-13-1.2-4,1.2-4,5.07-4.7,8.51a11.9,11.9,0,0,0-5.25.69c-4.51,1.64-2.9,8.58,1.37,7.85a5,5,0,0,0,.8.13c2.32,0,5.63.61,7.76-.68s2.38-4.26,2.87-6.49c.12-.51.31-1.56.47-2.38,1.28.05,2.86.58,3.85.23a2.51,2.51,0,0,0,.6.13v.52c0,1.07.15,2.32.16,3.5-3.4,1-7.07,2.12-6.94,6.36a4.06,4.06,0,0,0,2.92,3.83c4,1.06,8.22-1.07,11-3.94A3.69,3.69,0,0,0,392.35,26.4Z"/><path class="cls-4" d="M27,112.34c-.29-.91-.65-1.83-.92-2.76a8.52,8.52,0,0,0,3.37-5.15c.42-2-.56-4.5-2.77-4.89a7.6,7.6,0,0,0-6.7,1.83,3.83,3.83,0,0,0-1,.92A5.9,5.9,0,0,0,17.65,107c-.16,4.81,2.55,10.13,4,14.57,1.58,4.83,9.24,2.76,7.66-2.11Z"/></g></g></svg>